<svg width="715" height="863" viewBox="0 0 715 863" fill="none" xmlns="http://www.w3.org/2000/svg">
<path fill-rule="evenodd" clip-rule="evenodd" d="M595.08 624.642C668.656 559.161 715 463.743 715 357.5C715 160.058 554.942 0 357.5 0C160.058 0 0 160.058 0 357.5C0 462.406 45.186 556.759 117.157 622.157L357.361 862.361L595.08 624.642Z" fill="#ED482F"/>
<path d="M225.45 280.625C192.162 280.625 165.2 253.635 165.2 220.312C165.2 186.99 192.162 160 225.45 160C258.738 160 285.7 186.99 285.7 220.312C285.7 253.635 258.738 280.625 225.45 280.625ZM502.6 280.625C469.312 280.625 442.35 253.635 442.35 220.312C442.35 186.99 469.312 160 502.6 160C535.888 160 562.85 186.99 562.85 220.312C562.85 253.635 535.888 280.625 502.6 280.625ZM117 385.192C117 340.787 152.999 304.75 197.358 304.75H229.517C241.492 304.75 252.864 307.389 263.106 312.063C262.127 317.491 261.675 323.145 261.675 328.875C261.675 357.674 274.328 383.533 294.286 401.25C294.135 401.25 293.984 401.25 293.758 401.25H133.042C124.23 401.25 117 394.013 117 385.192ZM422.242 401.25C422.091 401.25 421.94 401.25 421.714 401.25C441.748 383.533 454.325 357.674 454.325 328.875C454.325 323.145 453.798 317.566 452.894 312.063C463.136 307.313 474.508 304.75 486.483 304.75H518.642C563.001 304.75 599 340.787 599 385.192C599 394.088 591.77 401.25 582.958 401.25H422.242ZM430.3 328.875C430.3 368.832 397.916 401.25 358 401.25C318.084 401.25 285.7 368.832 285.7 328.875C285.7 288.918 318.084 256.5 358 256.5C397.916 256.5 430.3 288.918 430.3 328.875ZM213.4 525.871C213.4 470.383 258.362 425.375 313.792 425.375H402.208C457.638 425.375 502.6 470.383 502.6 525.871C502.6 536.953 493.638 546 482.492 546H233.508C222.437 546 213.4 537.029 213.4 525.871Z" fill="white"/>
</svg>
