<svg width="715" height="863" viewBox="0 0 715 863" fill="none" xmlns="http://www.w3.org/2000/svg">
<path fill-rule="evenodd" clip-rule="evenodd" d="M595.08 624.642C668.656 559.161 715 463.743 715 357.5C715 160.058 554.942 0 357.5 0C160.058 0 0 160.058 0 357.5C0 462.406 45.186 556.759 117.157 622.157L357.361 862.361L595.08 624.642Z" fill="#1A2139"/>
<path d="M200.778 190.384C187.708 186.042 180.707 172.008 185.063 158.981C189.42 145.954 203.5 138.976 216.57 143.318L304.477 172.55C315.213 154.251 335.206 142 357.999 142C392.384 142 420.234 169.759 420.234 204.031C420.234 206.357 420.079 208.606 419.845 210.855L515.221 242.568C528.29 246.91 535.292 260.945 530.935 273.971C526.579 286.998 512.498 293.977 499.429 289.634L394.096 254.587C390.595 257.068 386.861 259.162 382.893 260.945V514.188C382.893 527.912 371.769 539 357.999 539H208.635C194.865 539 183.741 527.912 183.741 514.188C183.741 500.463 194.865 489.375 208.635 489.375H333.105V260.867C316.768 253.734 304.166 239.932 298.72 222.873L200.778 190.307V190.384ZM509.075 353.992C508.764 353.371 508.064 352.984 507.364 352.984C506.664 352.984 506.041 353.371 505.652 353.992L447.54 464.562H567.187L509.075 353.914V353.992ZM507.364 315.688C521.989 315.688 535.37 323.752 542.138 336.623L602.661 451.769C605.073 456.266 607.407 462.624 606.94 470.223C606.395 479.605 603.206 497.517 587.647 512.947C571.855 528.61 546.416 539 507.364 539C468.311 539 442.872 528.61 427.08 513.024C411.521 497.517 408.254 479.683 407.787 470.3C407.321 462.702 409.732 456.343 412.066 451.846L472.59 336.623C479.358 323.752 492.738 315.688 507.364 315.688ZM208.635 253.656C207.935 253.656 207.312 254.044 206.923 254.664L148.811 365.312H268.458L210.346 254.664C210.035 254.044 209.335 253.656 208.635 253.656V253.656ZM243.409 237.373L303.932 352.519C306.344 357.016 308.678 363.374 308.211 370.973C307.667 380.355 304.477 398.267 288.918 413.697C273.126 429.36 247.687 439.75 208.635 439.75C169.582 439.75 144.144 429.36 128.351 413.774C112.793 398.267 109.525 380.433 109.058 371.05C108.592 363.452 111.003 357.093 113.337 352.596L173.861 237.373C180.629 224.502 194.009 216.438 208.635 216.438C223.26 216.438 236.641 224.502 243.409 237.373Z" fill="white"/>
</svg>
