<svg width="715" height="863" viewBox="0 0 715 863" fill="none" xmlns="http://www.w3.org/2000/svg">
<path fill-rule="evenodd" clip-rule="evenodd" d="M595.08 624.642C668.656 559.161 715 463.743 715 357.5C715 160.058 554.942 0 357.5 0C160.058 0 0 160.058 0 357.5C0 462.406 45.186 556.759 117.157 622.157L357.361 862.361L595.08 624.642Z" fill="#2F80ED"/>
<path d="M358 353C303.87 353 260 309.13 260 255C260 200.87 303.87 157 358 157C412.13 157 456 200.87 456 255C456 309.13 412.13 353 358 353ZM143.625 206C160.545 206 174.25 219.705 174.25 236.625V267.25V328.5V359.278C174.25 372.294 179.38 384.773 188.567 393.961L227.691 433.084C234.045 439.439 243.998 440.434 251.425 435.458C261.302 428.873 262.68 414.862 254.258 406.517L242.62 394.88L218.12 370.38C208.55 360.809 208.55 345.267 218.12 335.697C227.691 326.127 243.233 326.127 252.803 335.697L277.303 360.197L288.941 371.834L308.311 391.205C324.389 407.283 333.423 429.103 333.423 451.842V512.25C333.423 532.539 316.962 549 296.673 549H245.683C232.667 549 220.188 543.87 211 534.683L134.514 458.197C120.733 444.416 113 425.734 113 406.211V328.5V279.5V236.625C113 219.705 126.705 206 143.625 206ZM572.375 206C589.295 206 603 219.705 603 236.625V279.5V328.5V406.211C603 425.734 595.267 444.416 581.486 458.197L505 534.683C495.812 543.87 483.333 549 470.317 549H419.25C398.961 549 382.5 532.539 382.5 512.25V451.842C382.5 429.103 391.534 407.283 407.612 391.205L426.983 371.834L438.62 360.197L463.12 335.697C472.691 326.127 488.233 326.127 497.803 335.697C507.373 345.267 507.373 360.809 497.803 370.38L473.303 394.88L461.666 406.517C453.244 414.939 454.622 428.873 464.498 435.458C471.925 440.434 481.878 439.439 488.233 433.084L527.356 393.961C536.544 384.773 541.673 372.294 541.673 359.278V328.5V267.25V236.625C541.673 219.705 555.378 206 572.298 206H572.375Z" fill="white"/>
</svg>
