<svg width="715" height="863" viewBox="0 0 715 863" fill="none" xmlns="http://www.w3.org/2000/svg">
<path fill-rule="evenodd" clip-rule="evenodd" d="M595.08 624.642C668.656 559.161 715 463.743 715 357.5C715 160.058 554.942 0 357.5 0C160.058 0 0 160.058 0 357.5C0 462.406 45.186 556.759 117.157 622.157L357.361 862.361L595.08 624.642Z" fill="#A657DF"/>
<path d="M242.25 148C221.133 148 204 165.217 204 186.438V519.562C204 540.783 221.133 558 242.25 558H318.75V493.938C318.75 472.717 335.883 455.5 357 455.5C378.117 455.5 395.25 472.717 395.25 493.938V558H471.75C492.867 558 510 540.783 510 519.562V186.438C510 165.217 492.867 148 471.75 148H242.25ZM255 340.188C255 333.141 260.737 327.375 267.75 327.375H293.25C300.263 327.375 306 333.141 306 340.188V365.812C306 372.859 300.263 378.625 293.25 378.625H267.75C260.737 378.625 255 372.859 255 365.812V340.188ZM344.25 327.375H369.75C376.763 327.375 382.5 333.141 382.5 340.188V365.812C382.5 372.859 376.763 378.625 369.75 378.625H344.25C337.237 378.625 331.5 372.859 331.5 365.812V340.188C331.5 333.141 337.237 327.375 344.25 327.375ZM408 340.188C408 333.141 413.737 327.375 420.75 327.375H446.25C453.263 327.375 459 333.141 459 340.188V365.812C459 372.859 453.263 378.625 446.25 378.625H420.75C413.737 378.625 408 372.859 408 365.812V340.188ZM337.875 199.25H376.125C383.138 199.25 388.875 205.016 388.875 212.062C388.875 219.109 383.138 224.875 376.125 224.875H350.625V276.125H363.375V263.312C363.375 256.266 369.112 250.5 376.125 250.5C383.138 250.5 388.875 256.266 388.875 263.312V282.531C388.875 293.182 380.348 301.75 369.75 301.75H344.25C333.652 301.75 325.125 293.182 325.125 282.531V212.062C325.125 205.016 330.862 199.25 337.875 199.25ZM446.25 224.875C439.237 224.875 433.5 230.641 433.5 237.688V263.312C433.5 270.359 439.237 276.125 446.25 276.125C453.263 276.125 459 270.359 459 263.312V237.688C459 230.641 453.263 224.875 446.25 224.875ZM408 237.688C408 216.467 425.133 199.25 446.25 199.25C467.367 199.25 484.5 216.467 484.5 237.688V263.312C484.5 284.533 467.367 301.75 446.25 301.75C425.133 301.75 408 284.533 408 263.312V237.688ZM252.848 204.936L280.5 246.576V212.062C280.5 205.016 286.237 199.25 293.25 199.25C300.263 199.25 306 205.016 306 212.062V288.938C306 294.623 302.334 299.588 296.916 301.189C291.497 302.791 285.759 300.709 282.652 296.064L255 254.344V288.938C255 295.984 249.263 301.75 242.25 301.75C235.237 301.75 229.5 295.984 229.5 288.938V212.062C229.5 206.377 233.166 201.412 238.584 199.811C244.003 198.209 249.741 200.291 252.848 204.936V204.936Z" fill="white"/>
</svg>
