<svg width="715" height="863" viewBox="0 0 715 863" fill="none" xmlns="http://www.w3.org/2000/svg">
<path fill-rule="evenodd" clip-rule="evenodd" d="M595.08 624.642C668.656 559.161 715 463.743 715 357.5C715 160.058 554.942 0 357.5 0C160.058 0 0 160.058 0 357.5C0 462.406 45.186 556.759 117.157 622.157L357.361 862.361L595.08 624.642Z" fill="#FCB852"/>
<path d="M348.535 143.923L179.68 216.305C169.126 220.829 163.247 232.138 165.584 243.297C167.92 254.456 177.72 262.599 189.178 262.599V268.631C189.178 278.659 197.244 286.726 207.27 286.726H508.797C518.823 286.726 526.888 278.659 526.888 268.631V262.599C538.346 262.599 548.221 254.531 550.483 243.297C552.744 232.063 546.865 220.753 536.386 216.305L367.531 143.923C361.425 141.359 354.566 141.359 348.535 143.923V143.923ZM261.545 310.854H213.3V458.86C212.848 459.086 212.396 459.388 211.943 459.689L175.76 483.817C166.94 489.698 162.945 500.706 166.036 510.885C169.126 521.063 178.549 528 189.178 528H526.888C537.517 528 546.865 521.063 549.955 510.885C553.046 500.706 549.126 489.698 540.231 483.817L504.048 459.689C503.595 459.388 503.143 459.162 502.691 458.86V310.854H454.522V455.618H424.369V310.854H376.125V455.618H339.942V310.854H291.697V455.618H261.545V310.854ZM358.033 238.472C344.691 238.472 333.911 227.69 333.911 214.344C333.911 200.999 344.691 190.217 358.033 190.217C371.376 190.217 382.155 200.999 382.155 214.344C382.155 227.69 371.376 238.472 358.033 238.472Z" fill="white"/>
</svg>
