<svg width="715" height="863" viewBox="0 0 715 863" fill="none" xmlns="http://www.w3.org/2000/svg">
<path fill-rule="evenodd" clip-rule="evenodd" d="M595.08 624.642C668.656 559.161 715 463.743 715 357.5C715 160.058 554.942 0 357.5 0C160.058 0 0 160.058 0 357.5C0 462.406 45.186 556.759 117.157 622.157L357.361 862.361L595.08 624.642Z" fill="#00C291"/>
<path d="M357.006 157C350.577 157 344.227 158.109 338.195 160.248L115.553 240.504C108.013 243.277 103.012 250.407 103.012 258.409C103.012 266.41 108.013 273.541 115.553 276.314L161.51 292.872C148.493 313.312 141.111 337.476 141.111 362.907V385.17C141.111 407.67 132.539 430.883 123.411 449.184C118.252 459.483 112.378 469.624 105.552 478.973C103.012 482.379 102.298 486.816 103.727 490.856C105.155 494.897 108.489 497.908 112.616 498.937L163.415 511.614C166.749 512.485 170.321 511.851 173.257 510.029C176.194 508.207 178.258 505.196 178.893 501.79C185.719 467.881 182.306 437.458 177.226 415.671C174.686 404.421 171.273 392.934 166.511 382.397V362.907C166.511 338.981 174.607 316.402 188.656 298.338C198.895 286.058 212.15 276.155 227.707 270.055L352.323 221.173C358.832 218.637 366.213 221.806 368.753 228.303C371.293 234.799 368.118 242.167 361.61 244.703L236.994 293.585C227.152 297.467 218.5 303.409 211.436 310.698L338.115 356.331C344.148 358.471 350.498 359.58 356.927 359.58C363.356 359.58 369.706 358.471 375.738 356.331L598.459 276.314C605.999 273.62 611 266.41 611 258.409C611 250.407 605.999 243.277 598.459 240.504L375.818 160.248C369.785 158.109 363.435 157 357.006 157ZM204.61 454.888C204.61 482.855 272.871 511.93 357.006 511.93C441.142 511.93 509.402 482.855 509.402 454.888L497.258 339.694L384.39 380.416C375.579 383.585 366.293 385.17 357.006 385.17C347.719 385.17 338.353 383.585 329.622 380.416L216.754 339.694L204.61 454.888Z" fill="white"/>
</svg>
