<svg width="715" height="863" fill="none" xmlns="http://www.w3.org/2000/svg"><path fill-rule="evenodd" clip-rule="evenodd" d="M595.08 624.642C668.656 559.161 715 463.743 715 357.5 715 160.058 554.942 0 357.5 0S0 160.058 0 357.5c0 104.906 45.186 199.259 117.157 264.657l240.204 240.204L595.08 624.642Z" fill="#ED482F"/><path d="M225.45 280.625c-33.288 0-60.25-26.99-60.25-60.313 0-33.322 26.962-60.312 60.25-60.312s60.25 26.99 60.25 60.312c0 33.323-26.962 60.313-60.25 60.313Zm277.15 0c-33.288 0-60.25-26.99-60.25-60.313 0-33.322 26.962-60.312 60.25-60.312s60.25 26.99 60.25 60.312c0 33.323-26.962 60.313-60.25 60.313ZM117 385.192c0-44.405 35.999-80.442 80.358-80.442h32.159a80.714 80.714 0 0 1 33.589 7.313c-.979 5.428-1.431 11.082-1.431 16.812 0 28.799 12.653 54.658 32.611 72.375H133.042c-8.812 0-16.042-7.237-16.042-16.058Zm305.242 16.058h-.528c20.034-17.717 32.611-43.576 32.611-72.375 0-5.73-.527-11.309-1.431-16.812 10.242-4.75 21.614-7.313 33.589-7.313h32.159c44.359 0 80.358 36.037 80.358 80.442 0 8.896-7.23 16.058-16.042 16.058H422.242Zm8.058-72.375c0 39.957-32.384 72.375-72.3 72.375s-72.3-32.418-72.3-72.375S318.084 256.5 358 256.5s72.3 32.418 72.3 72.375ZM213.4 525.871c0-55.488 44.962-100.496 100.392-100.496h88.416c55.43 0 100.392 45.008 100.392 100.496 0 11.082-8.962 20.129-20.108 20.129H233.508c-11.071 0-20.108-8.971-20.108-20.129Z" fill="#fff"/></svg>