<svg width="715" height="863" fill="none" xmlns="http://www.w3.org/2000/svg"><path fill-rule="evenodd" clip-rule="evenodd" d="M595.08 624.642C668.656 559.161 715 463.743 715 357.5 715 160.058 554.942 0 357.5 0S0 160.058 0 357.5c0 104.906 45.186 199.259 117.157 264.657l240.204 240.204L595.08 624.642Z" fill="#1A2139"/><path d="M200.778 190.384c-13.07-4.342-20.071-18.376-15.715-31.403 4.357-13.027 18.437-20.005 31.507-15.663l87.907 29.232A61.974 61.974 0 0 1 357.999 142c34.385 0 62.235 27.759 62.235 62.031 0 2.326-.155 4.575-.389 6.824l95.376 31.713c13.069 4.342 20.071 18.377 15.714 31.403-4.356 13.027-18.437 20.006-31.506 15.663l-105.333-35.047c-3.501 2.481-7.235 4.575-11.203 6.358v253.243c0 13.724-11.124 24.812-24.894 24.812H208.635c-13.77 0-24.894-11.088-24.894-24.812 0-13.725 11.124-24.813 24.894-24.813h124.47V260.867c-16.337-7.133-28.939-20.935-34.385-37.994l-97.942-32.566v.077Zm308.297 163.608c-.311-.621-1.011-1.008-1.711-1.008-.7 0-1.323.387-1.712 1.008l-58.112 110.57h119.647l-58.112-110.648v.078Zm-1.711-38.304c14.625 0 28.006 8.064 34.774 20.935l60.523 115.146c2.412 4.497 4.746 10.855 4.279 18.454-.545 9.382-3.734 27.294-19.293 42.724C571.855 528.61 546.416 539 507.364 539c-39.053 0-64.492-10.39-80.284-25.976-15.559-15.507-18.826-33.341-19.293-42.724-.466-7.598 1.945-13.957 4.279-18.454l60.524-115.223c6.768-12.871 20.148-20.935 34.774-20.935Zm-298.729-62.032c-.7 0-1.323.388-1.712 1.008l-58.112 110.648h119.647l-58.112-110.648c-.311-.62-1.011-1.008-1.711-1.008Zm34.774-16.283 60.523 115.146c2.412 4.497 4.746 10.855 4.279 18.454-.544 9.382-3.734 27.294-19.293 42.724-15.792 15.663-41.231 26.053-80.283 26.053-39.053 0-64.491-10.39-80.284-25.976-15.558-15.507-18.826-33.341-19.293-42.724-.466-7.598 1.945-13.957 4.279-18.454l60.524-115.223c6.768-12.871 20.148-20.935 34.774-20.935 14.625 0 28.006 8.064 34.774 20.935Z" fill="#fff"/></svg>