<svg width="715" height="863" fill="none" xmlns="http://www.w3.org/2000/svg"><path fill-rule="evenodd" clip-rule="evenodd" d="M595.08 624.642C668.656 559.161 715 463.743 715 357.5 715 160.058 554.942 0 357.5 0S0 160.058 0 357.5c0 104.906 45.186 199.259 117.157 264.657l240.204 240.204L595.08 624.642Z" fill="#2F80ED"/><path d="M358 353c-54.13 0-98-43.87-98-98s43.87-98 98-98 98 43.87 98 98-43.87 98-98 98ZM143.625 206c16.92 0 30.625 13.705 30.625 30.625V359.278c0 13.016 5.13 25.495 14.317 34.683l39.124 39.123c6.354 6.355 16.307 7.35 23.734 2.374 9.877-6.585 11.255-20.596 2.833-28.941L242.62 394.88l-24.5-24.5c-9.57-9.571-9.57-25.113 0-34.683 9.571-9.57 25.113-9.57 34.683 0l24.5 24.5 11.638 11.637 19.37 19.371a85.766 85.766 0 0 1 25.112 60.637v60.408c0 20.289-16.461 36.75-36.75 36.75h-50.99c-13.016 0-25.495-5.13-34.683-14.317l-76.486-76.486A73.474 73.474 0 0 1 113 406.211V236.625c0-16.92 13.705-30.625 30.625-30.625Zm428.75 0c16.92 0 30.625 13.705 30.625 30.625v169.586a73.474 73.474 0 0 1-21.514 51.986L505 534.683C495.812 543.87 483.333 549 470.317 549H419.25c-20.289 0-36.75-16.461-36.75-36.75v-60.408a85.766 85.766 0 0 1 25.112-60.637l19.371-19.371 11.637-11.637 24.5-24.5c9.571-9.57 25.113-9.57 34.683 0s9.57 25.112 0 34.683l-24.5 24.5-11.637 11.637c-8.422 8.422-7.044 22.356 2.832 28.941 7.427 4.976 17.38 3.981 23.735-2.374l39.123-39.123c9.188-9.188 14.317-21.667 14.317-34.683V236.625c0-16.92 13.705-30.625 30.625-30.625h.077Z" fill="#fff"/></svg>