<svg width="715" height="863" fill="none" xmlns="http://www.w3.org/2000/svg"><path fill-rule="evenodd" clip-rule="evenodd" d="M595.08 624.642C668.656 559.161 715 463.743 715 357.5 715 160.058 554.942 0 357.5 0S0 160.058 0 357.5c0 104.906 45.186 199.259 117.157 264.657l240.204 240.204L595.08 624.642Z" fill="#A657DF"/><path d="M242.25 148c-21.117 0-38.25 17.217-38.25 38.438v333.124C204 540.783 221.133 558 242.25 558h76.5v-64.062c0-21.221 17.133-38.438 38.25-38.438s38.25 17.217 38.25 38.438V558h76.5c21.117 0 38.25-17.217 38.25-38.438V186.438C510 165.217 492.867 148 471.75 148h-229.5ZM255 340.188c0-7.047 5.737-12.813 12.75-12.813h25.5c7.013 0 12.75 5.766 12.75 12.813v25.624c0 7.047-5.737 12.813-12.75 12.813h-25.5c-7.013 0-12.75-5.766-12.75-12.813v-25.624Zm89.25-12.813h25.5c7.013 0 12.75 5.766 12.75 12.813v25.624c0 7.047-5.737 12.813-12.75 12.813h-25.5c-7.013 0-12.75-5.766-12.75-12.813v-25.624c0-7.047 5.737-12.813 12.75-12.813ZM408 340.188c0-7.047 5.737-12.813 12.75-12.813h25.5c7.013 0 12.75 5.766 12.75 12.813v25.624c0 7.047-5.737 12.813-12.75 12.813h-25.5c-7.013 0-12.75-5.766-12.75-12.813v-25.624ZM337.875 199.25h38.25c7.013 0 12.75 5.766 12.75 12.812 0 7.047-5.737 12.813-12.75 12.813h-25.5v51.25h12.75v-12.813c0-7.046 5.737-12.812 12.75-12.812s12.75 5.766 12.75 12.812v19.219c0 10.651-8.527 19.219-19.125 19.219h-25.5c-10.598 0-19.125-8.568-19.125-19.219v-70.469c0-7.046 5.737-12.812 12.75-12.812Zm108.375 25.625c-7.013 0-12.75 5.766-12.75 12.813v25.624c0 7.047 5.737 12.813 12.75 12.813S459 270.359 459 263.312v-25.624c0-7.047-5.737-12.813-12.75-12.813ZM408 237.688c0-21.221 17.133-38.438 38.25-38.438s38.25 17.217 38.25 38.438v25.624c0 21.221-17.133 38.438-38.25 38.438S408 284.533 408 263.312v-25.624Zm-155.152-32.752 27.652 41.64v-34.514c0-7.046 5.737-12.812 12.75-12.812S306 205.016 306 212.062v76.876c0 5.685-3.666 10.65-9.084 12.251-5.419 1.602-11.157-.48-14.264-5.125L255 254.344v34.594c0 7.046-5.737 12.812-12.75 12.812s-12.75-5.766-12.75-12.812v-76.876c0-5.685 3.666-10.65 9.084-12.251 5.419-1.602 11.157.48 14.264 5.125Z" fill="#fff"/></svg>