<svg width="715" height="863" fill="none" xmlns="http://www.w3.org/2000/svg"><path fill-rule="evenodd" clip-rule="evenodd" d="M595.08 624.642C668.656 559.161 715 463.743 715 357.5 715 160.058 554.942 0 357.5 0S0 160.058 0 357.5c0 104.906 45.186 199.259 117.157 264.657l240.204 240.204L595.08 624.642Z" fill="#FCB852"/><path d="M348.535 143.923 179.68 216.305c-10.554 4.524-16.433 15.833-14.096 26.992 2.336 11.159 12.136 19.302 23.594 19.302v6.032a18.05 18.05 0 0 0 18.092 18.095h301.527a18.049 18.049 0 0 0 18.091-18.095v-6.032c11.458 0 21.333-8.068 23.595-19.302 2.261-11.234-3.618-22.544-14.097-26.992l-168.855-72.382c-6.106-2.564-12.965-2.564-18.996 0Zm-86.99 166.931H213.3V458.86c-.452.226-.904.528-1.357.829l-36.183 24.128c-8.82 5.881-12.815 16.889-9.724 27.068 3.09 10.178 12.513 17.115 23.142 17.115h337.71a24.087 24.087 0 0 0 23.067-17.115c3.091-10.179-.829-21.187-9.724-27.068l-36.183-24.128c-.453-.301-.905-.527-1.357-.829V310.854h-48.169v144.764h-30.153V310.854h-48.244v144.764h-36.183V310.854h-48.245v144.764h-30.152V310.854Zm96.488-72.382c-13.342 0-24.122-10.782-24.122-24.128 0-13.345 10.78-24.127 24.122-24.127 13.343 0 24.122 10.782 24.122 24.127 0 13.346-10.779 24.128-24.122 24.128Z" fill="#fff"/></svg>