<svg version="1.1" id="Layer_1" xmlns="http://www.w3.org/2000/svg" x="0" y="0" viewBox="0 0 200 200" style="enable-background:new 0 0 200 200" xml:space="preserve"><style>.st0{fill:#010101}</style><g id="search_00000112598952551476260310000013894284383860236694_"><path class="st0" d="M94.4 137.4c24.2 0 43.9-19.6 43.9-43.9s-19.6-43.9-43.9-43.9-43.9 19.7-43.9 43.9 19.7 43.9 43.9 43.9zm0-75.2c17.3 0 31.3 14 31.3 31.3s-14 31.3-31.3 31.3-31.3-14-31.3-31.3 14-31.3 31.3-31.3z"/><path class="st0" d="M144.6 149.9c1.7 0 3.3-.6 4.4-1.8 2.5-2.4 2.5-6.4 0-8.9l-23.6-23.6c-2.5-2.5-6.6-2.4-9.1.2-2.5 2.5-2.4 6.6.2 9.1l23.6 23.3c1.2 1.1 2.8 1.7 4.5 1.7z"/></g></svg>