<svg width="715" height="863" fill="none" xmlns="http://www.w3.org/2000/svg"><path fill-rule="evenodd" clip-rule="evenodd" d="M595.08 624.642C668.656 559.161 715 463.743 715 357.5 715 160.058 554.942 0 357.5 0S0 160.058 0 357.5c0 104.906 45.186 199.259 117.157 264.657l240.204 240.204L595.08 624.642Z" fill="#00C291"/><path d="M357.006 157a56.246 56.246 0 0 0-18.811 3.248l-222.642 80.256c-7.54 2.773-12.541 9.903-12.541 17.905 0 8.001 5.001 15.132 12.541 17.905l45.957 16.558a130.251 130.251 0 0 0-20.399 70.035v22.263c0 22.5-8.572 45.713-17.7 64.014-5.159 10.299-11.033 20.44-17.859 29.789-2.54 3.406-3.254 7.843-1.825 11.883a12.653 12.653 0 0 0 8.889 8.081l50.799 12.677c3.334.871 6.906.237 9.842-1.585a12.41 12.41 0 0 0 5.636-8.239c6.826-33.909 3.413-64.332-1.667-86.119-2.54-11.25-5.953-22.737-10.715-33.274v-19.49c0-23.926 8.096-46.505 22.145-64.569 10.239-12.28 23.494-22.183 39.051-28.283l124.616-48.882c6.509-2.536 13.89.633 16.43 7.13 2.54 6.496-.635 13.864-7.143 16.4l-124.616 48.882c-9.842 3.882-18.494 9.824-25.558 17.113l126.679 45.633a56.232 56.232 0 0 0 18.812 3.249 56.222 56.222 0 0 0 18.811-3.249l222.721-80.017c7.54-2.694 12.541-9.904 12.541-17.905 0-8.002-5.001-15.132-12.541-17.905l-222.641-80.256A56.256 56.256 0 0 0 357.006 157ZM204.61 454.888c0 27.967 68.261 57.042 152.396 57.042 84.136 0 152.396-29.075 152.396-57.042l-12.144-115.194-112.868 40.722a80.974 80.974 0 0 1-27.384 4.754c-9.287 0-18.653-1.585-27.384-4.754l-112.868-40.722-12.144 115.194Z" fill="#fff"/></svg>